<?xml version="1.0" standalone="no"?>
<!DOCTYPE svg PUBLIC "-//W3C//DTD SVG 1.1//EN" "http://www.w3.org/Graphics/SVG/1.1/DTD/svg11.dtd" >
<svg xmlns="http://www.w3.org/2000/svg">
<metadata></metadata>
<defs>
<font id="todayshop-xlightitalicregular" horiz-adv-x="1021" >
<font-face units-per-em="2048" ascent="1638" descent="-410" />
<missing-glyph horiz-adv-x="350" />
<glyph horiz-adv-x="2048" />
<glyph horiz-adv-x="2048" />
<glyph unicode="&#xd;" horiz-adv-x="2048" />
<glyph unicode=" "  horiz-adv-x="350" />
<glyph unicode="&#x09;" horiz-adv-x="350" />
<glyph unicode="&#xa0;" horiz-adv-x="350" />
<glyph unicode="!" horiz-adv-x="313" d="M68 45q2 30 18 50t39 20q20 0 32.5 -14.5t12.5 -37.5q0 -34 -16.5 -55.5t-42.5 -21.5q-21 0 -33 16t-10 43zM123 256l149 1087h78l-180 -1087h-47z" />
<glyph unicode="&#x22;" horiz-adv-x="540" d="M115 918q97 116 152.5 224t84.5 240l56 -6q-24 -134 -83 -247.5t-163 -231.5zM330 918q97 116 152.5 224t84.5 240l56 -6q-24 -134 -83 -247.5t-163 -231.5z" />
<glyph unicode="#" horiz-adv-x="1124" d="M131 473l12 39h215l101 324h-217l12 38h215l145 469h39l-143 -469h299l145 469h39l-143 -469h215l-12 -38h-215l-101 -324h217l-12 -39h-215l-147 -473h-39l145 473h-301l-145 -473h-39l145 473h-215zM397 512h301l101 324h-301z" />
<glyph unicode="$" horiz-adv-x="704" d="M-29 143l11 74q77 -82 149.5 -118t161.5 -36q129 0 205.5 77t76.5 206q0 63 -24 112.5t-82 104.5q-6 6 -9 9.5t-11 10.5t-48 40t-122 100q-134 113 -134 258q0 125 79.5 207.5t215.5 97.5l25 166h55l-24 -166q66 -9 105 -25t106 -61l-33 -51q-104 84 -217 84 q-106 0 -177 -68.5t-71 -169.5q0 -63 19 -106.5t67 -91.5q10 -10 76 -66q15 -13 45.5 -38t44.5 -38q98 -79 138 -148t40 -157q0 -145 -89 -238t-237 -104l-28 -186h-56l27 186q-93 12 -148 38t-137 97z" />
<glyph unicode="%" horiz-adv-x="1185" d="M96 823q0 90 32 193.5t83 173.5q40 57 82.5 85t99.5 32q86 7 138.5 -56t52.5 -174q0 -108 -29 -212t-80 -177q-41 -62 -86.5 -91t-105.5 -32q-42 -3 -82.5 16.5t-63.5 53.5q-41 55 -41 188zM154 821q-5 -103 33 -157.5t108 -47.5q59 8 102 50.5t78 128.5q51 122 51 284 q0 85 -37.5 133t-101.5 45q-60 -3 -111 -61t-83.5 -157t-38.5 -218zM244 0l717 1321l47 -14l-713 -1319zM664 258q0 92 31.5 195.5t82.5 173.5q40 57 83 84t100 32q85 8 137.5 -55.5t52.5 -175.5q0 -106 -29 -211t-80 -178q-41 -62 -86.5 -91t-105.5 -32q-43 -2 -82.5 17 t-62.5 53q-41 55 -41 188zM721 256q-5 -103 33 -158.5t108 -46.5q59 8 102 50t78 128q52 125 52 287q0 85 -38 133t-102 45q-60 -3 -111 -61t-83.5 -157.5t-38.5 -219.5z" />
<glyph unicode="&#x26;" horiz-adv-x="1583" d="M74 518q0 132 49.5 267.5t132.5 230.5q140 158 319 176q93 9 154.5 -44.5t61.5 -143.5q0 -69 -20 -121t-73 -123q-109 -142 -319 -268q-93 -54 -234 -115q17 -78 40 -123t67 -88q127 -127 334 -127q191 0 362.5 114t263.5 302q44 92 68 177t43 214h-268l8 53h571l-8 -53 h-240q-15 -116 -36 -198.5t-58 -170.5q-98 -227 -294.5 -363.5t-426.5 -136.5q-139 0 -251.5 57.5t-174.5 160.5q-38 65 -54.5 139t-16.5 184zM135 459l2 -13v-12l2 -12q144 67 222 113.5t155 111.5q101 85 156 175.5t55 172.5q0 69 -46 108.5t-118 31.5q-93 -9 -177 -70 t-142 -153t-88.5 -212t-20.5 -241z" />
<glyph unicode="'" horiz-adv-x="327" d="M115 918q97 116 152.5 224t84.5 240l56 -6q-24 -134 -83 -247.5t-163 -231.5z" />
<glyph unicode="(" horiz-adv-x="411" d="M88 578q0 97 26 218t70 226q103 255 318 455l39 -25q-148 -148 -234 -297q-74 -129 -118 -281t-44 -278q0 -96 2 -129.5t11 -95.5q37 -244 149 -480l-51 -16q-66 126 -106 254q-35 114 -50 225q-12 96 -12 224z" />
<glyph unicode=")" horiz-adv-x="415" d="M-61 -100q141 139 233 297q74 129 118 281t44 276q0 101 -1.5 133.5t-10.5 93.5q-37 245 -150 477l51 19q64 -118 107 -254q33 -107 49 -226q12 -96 12 -225q0 -96 -26 -217.5t-70 -224.5q-105 -259 -318 -455z" />
<glyph unicode="*" horiz-adv-x="747" d="M162 1245l28 55l269 -157l37 315l61 -8l-55 -309l293 82l10 -62l-299 -57l156 -266l-56 -27l-135 266l-209 -229l-41 43l221 215z" />
<glyph unicode="+" horiz-adv-x="1007" d="M111 631l6 41h401l60 399h40l-59 -399h402l-7 -41h-401l-59 -402h-43l59 402h-399z" />
<glyph unicode="," horiz-adv-x="210" d="M-193 -285q104 125 162.5 240.5t89.5 253.5l56 -6q-53 -279 -260 -508z" />
<glyph unicode="-" horiz-adv-x="489" d="M59 453l9 55h370l-8 -55h-371z" />
<glyph unicode="." horiz-adv-x="229" d="M4 45q2 30 18 50t39 20q22 0 35 -14.5t13 -37.5q0 -33 -18 -55t-44 -22q-20 0 -32 16.5t-11 42.5z" />
<glyph unicode="/" horiz-adv-x="690" d="M-47 -92l801 1550l55 -12l-803 -1555z" />
<glyph unicode="0" horiz-adv-x="901" d="M74 510q17 234 86 419t176 288.5t233 103.5q152 0 233 -120.5t81 -346.5q0 -146 -33.5 -300.5t-93.5 -283.5q-65 -140 -162.5 -216.5t-212.5 -76.5q-158 0 -241 144t-66 389zM139 508q-14 -223 52 -348t196 -125q92 0 178.5 70.5t141.5 191.5q112 249 112 561 q0 198 -66.5 302t-193.5 104q-106 0 -197.5 -98t-150.5 -271t-72 -387z" />
<glyph unicode="1" horiz-adv-x="569" d="M92 1069q134 69 219 115q161 87 244 139l23 -14l-197 -1309h-59l184 1235q-221 -129 -391 -209z" />
<glyph unicode="2" horiz-adv-x="854" d="M-49 31q145 128 295 276q161 160 241 247.5t134 160.5q98 140 98 282q0 114 -73.5 190.5t-182.5 76.5q-146 0 -270 -142l-33 47q128 152 309 152q138 0 226.5 -91.5t88.5 -234.5q0 -100 -41.5 -190t-144.5 -211q-56 -66 -236 -246q-183 -183 -305 -293h723l-18 -55h-797z " />
<glyph unicode="3" horiz-adv-x="741" d="M-53 100l22 64q132 -129 312 -129q147 0 242 94.5t95 239.5q0 154 -102 231q-83 64 -178 64h-150l9 53h159q38 0 55 3.5t46 16.5q89 41 143.5 119.5t54.5 163.5q0 109 -67.5 176.5t-177.5 67.5q-138 0 -248 -107l-25 53q67 58 135.5 84.5t151.5 26.5q134 0 214.5 -80 t80.5 -213q0 -83 -36.5 -153.5t-104.5 -120.5q-43 -27 -115 -62q117 -46 168 -121.5t51 -201.5q0 -167 -117.5 -279.5t-292.5 -112.5q-178 0 -325 123z" />
<glyph unicode="4" horiz-adv-x="929" d="M12 449l783 882l24 -16l-125 -838h226l-7 -53h-227l-63 -424h-60l64 424h-604zM106 477h527l82 539q1 13 16 104q4 16 4 23l4 22l4 25l5 22q-75 -94 -164 -196z" />
<glyph unicode="5" horiz-adv-x="765" d="M-53 96l20 62q144 -123 320 -123q157 0 259.5 109.5t102.5 275.5q0 100 -53 181.5t-143 119.5q-50 21 -99.5 31t-140.5 18l154 526h454l-18 -55h-385l-125 -428q107 -8 192 -41q105 -43 167.5 -137t62.5 -209q0 -192 -122.5 -320.5t-305.5 -128.5q-204 0 -340 119z" />
<glyph unicode="6" horiz-adv-x="868" d="M63 432q0 114 49.5 255t129.5 257q109 158 264.5 258.5t378.5 157.5l-8 -57q-247 -75 -406 -197q-101 -77 -168 -172t-131 -256q67 62 132 92t142 33q158 7 258.5 -91.5t108.5 -267.5q9 -207 -101 -337t-294 -130q-97 0 -179.5 55t-125.5 150q-50 106 -50 250zM125 434 q0 -95 17 -159.5t57 -118.5q41 -56 102.5 -88.5t124.5 -32.5q96 0 160 37t110 118q56 101 56 238q0 139 -88.5 228t-225.5 89q-114 0 -205 -69q-75 -59 -79 -72q-29 -107 -29 -170z" />
<glyph unicode="7" horiz-adv-x="802" d="M31 0l800 1241h-700l8 55h770l13 -20l-834 -1299z" />
<glyph unicode="8" horiz-adv-x="821" d="M37 313q0 80 44.5 153.5t125.5 127.5q51 33 192 86q-112 101 -147 147q-78 99 -78 207q0 117 95.5 202t226.5 85q138 0 225 -70q51 -41 79.5 -100t28.5 -121q0 -168 -167 -274q-54 -34 -166 -76q129 -121 178 -188q77 -108 80 -195q6 -133 -96.5 -226.5t-254.5 -93.5 q-158 0 -262 95.5t-104 240.5zM104 313q0 -120 87 -199t219 -79q124 0 204.5 75.5t71.5 182.5q-12 121 -135 250q-25 25 -68 61q-48 42 -49 41q-89 -32 -135 -57t-86 -62q-109 -95 -109 -213zM236 1034q0 -59 23.5 -106.5t84.5 -108.5q13 -15 64 -61q10 -9 19.5 -18t15 -14 t10 -9t6.5 -5.5t2 -0.5q88 36 135 64t84 65q45 46 64.5 91t19.5 103q0 96 -79 164t-191 68q-106 0 -182 -68.5t-76 -163.5z" />
<glyph unicode="9" horiz-adv-x="858" d="M31 -49l8 63q296 49 498 265q75 79 121.5 160t89.5 206q-68 -66 -139 -95.5t-163 -29.5q-145 0 -238 102t-93 259q0 186 101 308.5t263 131.5t269.5 -102t107.5 -289q0 -197 -75.5 -381.5t-213.5 -325.5q-114 -114 -243 -180t-293 -92zM180 885q0 -136 79.5 -221.5 t207.5 -85.5q73 0 143 29.5t121 82.5q11 11 20.5 21.5t14.5 16.5l6 7q19 95 19 166q0 169 -88.5 270t-229.5 93q-131 -8 -212 -112.5t-81 -266.5z" />
<glyph unicode=":" horiz-adv-x="288" d="M59 59q2 29 18.5 49.5t39.5 20.5q22 0 34.5 -14t12.5 -37q0 -34 -18 -56t-44 -22q-21 0 -33 16t-10 43zM172 817q2 30 18 50t39 20q22 0 34.5 -14t12.5 -37q0 -34 -17.5 -56t-43.5 -22q-21 0 -33 16t-10 43z" />
<glyph unicode=";" horiz-adv-x="284" d="M-113 -285q104 125 162.5 240.5t89.5 253.5l56 -6q-53 -278 -261 -508zM170 817q1 29 18 49.5t39 20.5t34.5 -14t12.5 -37q0 -34 -17.5 -56t-43.5 -22q-21 0 -33 16t-10 43z" />
<glyph unicode="&#x3c;" horiz-adv-x="663" d="M45 442l332 379l22 -49l-288 -330l190 -327l-37 -45zM301 442l330 379l24 -49l-288 -330l190 -327l-39 -45z" />
<glyph unicode="=" horiz-adv-x="1007" d="M47 496l6 41h828l-7 -41h-827zM88 764l6 41h828l-7 -41h-827z" />
<glyph unicode="&#x3e;" horiz-adv-x="663" d="M4 119l289 330l-191 327l37 45l219 -372l-329 -379zM260 119l289 330l-191 327l37 45l219 -372l-331 -379z" />
<glyph unicode="?" horiz-adv-x="649" d="M121 45q2 30 18 50t39 20q22 0 34.5 -14.5t12.5 -37.5q0 -34 -17.5 -55.5t-43.5 -21.5q-20 0 -32 16.5t-11 42.5zM156 256q7 104 24.5 168t52.5 121q26 42 105 121q49 52 121 120q85 85 123.5 158t38.5 148q0 95 -67 156t-171 61q-51 0 -93.5 -13t-99.5 -47l-6 56 q60 34 106 47.5t103 13.5q126 0 210.5 -77.5t84.5 -194.5q0 -85 -45.5 -167t-144.5 -175q-124 -116 -176 -181t-75 -131.5t-32 -183.5h-59z" />
<glyph unicode="@" horiz-adv-x="2093" d="M176 408q0 190 77 363t206 297t304 197.5t365 73.5q169 0 313.5 -45.5t255 -132.5t173.5 -225t63 -311q0 -213 -97.5 -362t-291.5 -218q-126 -45 -235 -45h-125l30 195q-51 -86 -147.5 -140.5t-196.5 -54.5q-68 0 -117 26t-76 72.5t-39.5 101t-12.5 119.5q0 90 21 178.5 t64.5 168.5t103.5 141t143.5 97t179.5 36q111 0 252 -31l-127 -848h65q83 3 186 39q177 64 268 199t91 326q0 162 -57.5 289.5t-159 208.5t-235.5 123t-292 42q-141 0 -276 -44.5t-245 -126.5t-193.5 -190t-129.5 -242.5t-46 -276.5q0 -377 197 -568.5t577 -191.5 q142 0 262 24.5t248 81.5l18 -55q-250 -109 -528 -109q-836 0 -836 818zM692 319q0 -260 193 -260q95 0 188.5 69t151.5 161l92 575q-96 21 -168 21q-88 0 -163.5 -33t-128.5 -88.5t-91 -128.5t-56 -153.5t-18 -162.5z" />
<glyph unicode="A" d="M-90 0l766 1380h31l274 -1380h-66l-100 520h-553l-285 -520h-67zM293 571h512l-103 514q-14 84 -14 86l-2 11l-4 22l-4 23l-4 20l-4 23q-25 -53 -95 -185z" />
<glyph unicode="B" horiz-adv-x="872" d="M49 18l199 1325q140 11 209 11h20q145 -6 229.5 -88t84.5 -217q0 -78 -32.5 -148t-92.5 -117q-44 -32 -131 -67q139 -37 206.5 -121t67.5 -221q0 -92 -43.5 -173t-118.5 -128q-67 -43 -144 -59.5t-208 -16.5q-49 0 -135 8q-38 3 -111 12zM123 72q75 -12 106.5 -14.5 t124.5 -2.5t171 26.5t126 72.5q42 43 66 100t24 115q0 146 -92.5 232.5t-249.5 86.5h-184zM223 741h213q42 0 99 25q92 46 140 118.5t48 164.5q-1 125 -89 191q-78 58 -208 57q-18 0 -37 -1q-37 -3 -84 -6z" />
<glyph unicode="C" horiz-adv-x="1032" d="M82 539q0 173 68.5 345t185.5 290q190 190 444 190q90 0 164.5 -23t153.5 -77l-27 -58q-82 54 -153 76.5t-162 22.5q-137 0 -257.5 -73.5t-209.5 -211.5q-68 -104 -105 -231t-37 -254q0 -121 34.5 -221t97.5 -162q52 -51 132 -82t158 -31q128 0 216 31t190 112l-10 -76 q-104 -72 -202 -103q-84 -27 -178 -27q-15 0 -30 1q-227 10 -350 156t-123 406z" />
<glyph unicode="D" horiz-adv-x="1185" d="M49 16l199 1327l26 3h27q100 4 172 4q134 0 264 -40.5t213 -107.5q96 -78 151.5 -206t55.5 -271q0 -153 -55.5 -291.5t-157.5 -240.5q-114 -113 -253 -157t-380 -44q-81 0 -188 14q-5 1 -30 4.5t-44 5.5zM123 72q20 -4 24 -4q101 -19 164 -19q127 0 139 0.5t70 9.5 q293 43 438 246q60 87 94.5 197.5t34.5 218.5q0 269 -172 420t-479 151q-21 0 -131 -4z" />
<glyph unicode="E" horiz-adv-x="839" d="M49 0l201 1343h590l-9 -55h-524l-82 -547h467l-8 -55h-467l-94 -629h657l-16 -57h-715z" />
<glyph unicode="F" horiz-adv-x="708" d="M49 0l201 1343h579l-8 -55h-514l-84 -565h459l-8 -55h-459l-100 -668h-66z" />
<glyph unicode="G" horiz-adv-x="1181" d="M82 547q0 150 58.5 306t158.5 277q199 234 483 234q209 0 373 -127l-27 -57q-91 67 -174 97t-180 30q-253 0 -428 -213q-96 -116 -147.5 -261t-51.5 -298q0 -243 127 -373q55 -55 143 -90t173 -35q128 0 201 22.5t172 94.5l63 415h-367l9 56h432l-76 -504 q-107 -80 -207 -112t-239 -32q-112 0 -214 44.5t-165 119.5q-62 75 -89.5 171t-27.5 235z" />
<glyph unicode="H" horiz-adv-x="1148" d="M49 0l201 1343h65l-90 -602h783l90 602h63l-200 -1343h-66l104 686h-782l-102 -686h-66z" />
<glyph unicode="I" horiz-adv-x="299" d="M49 0l201 1343h65l-200 -1343h-66z" />
<glyph unicode="J" horiz-adv-x="579" d="M-57 31l10 69q88 -63 194 -63t157.5 65.5t76.5 231.5l151 1009h64l-150 -1005q-18 -130 -43 -197q-31 -78 -96.5 -121t-154.5 -43q-117 0 -209 54z" />
<glyph unicode="K" horiz-adv-x="933" d="M45 0l201 1343h65l-98 -659l735 682l49 -29l-626 -579l522 -758h-78l-489 719l-125 -117l-90 -602h-66z" />
<glyph unicode="L" horiz-adv-x="747" d="M49 0l201 1343h65l-192 -1286h567l-18 -57h-623z" />
<glyph unicode="M" horiz-adv-x="1536" d="M-39 0l535 1380h32l154 -958q11 -73 20 -129q1 -7 1 -9t1 -6t3.5 -23.5t7.5 -51.5l10 -60l8 -57l15 33q59 128 145 303l477 958h33l37 -1380h-62l-24 907v51q-2 72 -2.5 97t-1.5 49q0 19 -1 59t-1 78q-60 -146 -154 -334l-453 -907h-53l-145 918q-8 36 -23 153l-10 57 l-8 58l-8 59q-59 -171 -119 -327l-352 -918h-62z" />
<glyph unicode="N" horiz-adv-x="1251" d="M49 0l203 1350l33 12l555 -938q16 -26 39.5 -66t29 -48.5t21.5 -36t19.5 -34t19.5 -35.5t26 -47.5t35 -64.5l2 27q6 49 23 184q14 92 16 117l139 923h58l-201 -1349l-35 -12l-555 936q-16 28 -39.5 67t-28.5 47.5t-21 36t-18.5 32t-19.5 35.5t-25.5 47t-35.5 66 q-6 -51 -15 -108q-5 -53 -28 -219l-137 -922h-60z" />
<glyph unicode="O" horiz-adv-x="1214" d="M82 530q0 135 47 286t125 265q92 136 216.5 209.5t264.5 73.5q207 0 333 -144.5t126 -383.5q0 -394 -233 -664q-171 -195 -424 -195q-95 0 -182.5 39t-147.5 107q-125 140 -125 407zM147 520q0 -218 111.5 -349.5t294.5 -131.5q105 0 205 48.5t166 131.5 q95 120 149.5 285t54.5 334q0 207 -112.5 337t-292.5 130q-122 0 -230 -65t-186 -185q-75 -116 -117.5 -257.5t-42.5 -277.5z" />
<glyph unicode="P" horiz-adv-x="794" d="M49 0l201 1343q11 1 24 2t21.5 2t13.5 1q66 4 92 4h45q181 0 284.5 -91t103.5 -251q0 -188 -123 -295t-338 -107q-92 0 -166 8l-92 -616h-66zM215 678q82 -12 156 -12q189 0 292 88.5t103 251.5q0 148 -100 224q-87 67 -235 67q-21 0 -44 -1q-54 -4 -80 -6z" />
<glyph unicode="Q" horiz-adv-x="1214" d="M82 530q0 134 47 284t125 267q91 136 215.5 209.5t265.5 73.5q207 0 333 -145t126 -383q0 -245 -95 -449.5t-261 -320.5q58 -61 170 -134q161 -98 374 -165l-69 -50q-180 66 -301.5 139t-225.5 179q-116 -58 -249 -58q-95 0 -182.5 39t-147.5 107q-125 140 -125 407z M147 520q0 -218 111.5 -349.5t294.5 -131.5q105 0 205 48.5t166 131.5q95 120 149.5 285t54.5 334q0 207 -112.5 337t-292.5 130q-122 0 -230 -65t-186 -185q-75 -116 -117.5 -257.5t-42.5 -277.5z" />
<glyph unicode="R" horiz-adv-x="929" d="M49 0l201 1343q144 9 188 9q179 0 277 -88.5t98 -249.5q0 -137 -81 -233.5t-232 -139.5l385 -641h-78l-371 631h-227l-94 -631h-66zM217 686h223q32 0 84.5 19.5t89.5 44.5q57 40 95.5 113t38.5 143q0 150 -97 225q-47 38 -101 51.5t-163 13.5q-10 0 -80 -4z" />
<glyph unicode="S" horiz-adv-x="765" d="M-35 127l12 80q149 -168 347 -168q135 0 219 83.5t84 217.5q0 100 -44 160.5t-210 191.5q-129 103 -174 174t-45 174q0 135 101 229.5t247 94.5q131 0 262 -96l-31 -56q-126 93 -244 93q-112 0 -187 -70.5t-81 -181.5v-14q-1 -77 39 -141q44 -68 166 -165 q105 -84 147 -122t68 -74q55 -78 55 -191q0 -84 -34 -159t-95 -126q-97 -84 -256 -84q-187 0 -346 150z" />
<glyph unicode="T" horiz-adv-x="980" d="M139 1288l8 55h955l-8 -55h-447l-192 -1288h-66l193 1288h-443z" />
<glyph unicode="U" horiz-adv-x="1134" d="M106 340q0 73 19 190l121 813h65l-121 -806q-16 -118 -16 -193q0 -135 98.5 -221t253.5 -86q123 0 215.5 46t141.5 132q32 56 51 125.5t39 202.5l121 800h65l-121 -796q-23 -162 -41.5 -229.5t-58.5 -131.5q-57 -97 -166.5 -153t-241.5 -56q-189 0 -306.5 101t-117.5 262 z" />
<glyph unicode="V" horiz-adv-x="1050" d="M129 1333l57 21l187 -948q25 -132 59 -338q93 187 176 338l522 948l54 -21l-735 -1333h-56z" />
<glyph unicode="W" horiz-adv-x="1572" d="M139 1333l60 21l157 -942q20 -112 27 -158q1 -10 5.5 -42t6.5 -56l13 -80q18 40 29.5 64t13.5 29t3 7t5 12q15 30 49.5 101t58.5 119l232 452l-82 473l59 21l156 -940q29 -163 49 -346q52 117 74 161.5t96 184.5l498 940l55 -21l-707 -1333h-53l-135 782 q-50 -103 -69 -142q-2 -5 -3 -6q-1 -2 -2 -5q-99 -203 -121 -244l-194 -385h-51z" />
<glyph unicode="X" horiz-adv-x="1003" d="M-61 10l573 703l-322 620l60 27l299 -598l483 598l49 -27l-506 -622l361 -701l-57 -26l-342 680l-545 -680z" />
<glyph unicode="Y" horiz-adv-x="905" d="M129 1333l57 21l283 -668l514 668l55 -21l-544 -704l-95 -629h-65l94 629z" />
<glyph unicode="Z" horiz-adv-x="974" d="M-57 23l1022 1265h-764l8 55h844l10 -24l-1020 -1262h858l-10 -57h-936z" />
<glyph unicode="[" horiz-adv-x="438" d="M31 -109l233 1561h307l-14 -49h-242l-219 -1462h242l-14 -50h-293z" />
<glyph unicode="]" horiz-adv-x="444" d="M-61 -109l14 50h242l219 1462h-242l12 49h295l-233 -1561h-307z" />
<glyph unicode="^" d="M-90 0l766 1380h31l274 -1380h-66l-100 520h-553l-285 -520h-67zM293 571h512l-103 514q-14 84 -14 86l-2 11l-4 22l-4 23l-4 20l-4 23q-25 -53 -95 -185zM430 1333q2 28 15.5 46.5t35.5 19.5q22 2 34 -12t11 -39q-1 -31 -17.5 -49.5t-39.5 -16.5q-19 2 -29.5 15.5 t-9.5 35.5zM842 1333q2 28 15.5 46.5t35.5 19.5q22 2 34 -12t11 -39q-1 -31 -17.5 -49.5t-39.5 -16.5q-19 2 -29.5 15.5t-9.5 35.5z" />
<glyph unicode="_" horiz-adv-x="813" d="M-113 -289l9 47h813l-9 -47h-813z" />
<glyph unicode="`" horiz-adv-x="0" d="M-10 1378l65 6l101 -274l-37 -8z" />
<glyph unicode="a" horiz-adv-x="759" d="M37 287q25 277 170 467q79 105 199 141q45 14 124 14q35 0 117 -12q7 -2 27 -5.5t31 -6.5l-80 -529q-19 -141 -23 -217v-14q0 -41 16 -61q16 -19 48 -20q7 0 14 1q6 0 22 4l-14 -53q-14 -4 -35 -4q-58 0 -85 31.5t-27 99.5q0 53 8 94l12 94q-44 -92 -69 -135t-54 -78 q-91 -115 -209 -121h-14q-94 0 -141 76q-40 64 -40 172q0 29 3 62zM96 229q0 -103 40 -154q34 -43 93 -43q10 0 21 1q68 9 121 56.5t116 154.5q30 51 86 168l64 428q-86 15 -140 15q-14 0 -26 -1q-193 -18 -297 -262q-78 -186 -78 -363z" />
<glyph unicode="b" horiz-adv-x="747" d="M49 41l211 1411h59l-137 -885q94 188 169.5 265t166.5 77q99 0 146 -60.5t47 -189.5q0 -133 -45 -277t-119 -247q-52 -73 -129.5 -115.5t-159.5 -42.5q-57 0 -102.5 14t-106.5 50zM115 72q70 -40 138 -40q13 0 26 1q109 11 183.5 83.5t129.5 223.5q31 89 44 166.5 t13 177.5q0 86 -44 134q-36 39 -88 38q-12 0 -25 -2q-78 -12 -146 -92.5t-172 -284.5z" />
<glyph unicode="c" horiz-adv-x="587" d="M45 299q0 98 30 211t81 205q53 97 126 150t156 53q65 0 107.5 -23t75.5 -78l-48 -37q-31 47 -65 66q-29 16 -69 16h-13q-146 -9 -227 -178q-40 -86 -65 -190t-25 -191q0 -126 43.5 -197t121.5 -71q139 0 230 139l37 -35q-107 -162 -271 -162q-107 0 -166 84t-59 238z" />
<glyph unicode="d" horiz-adv-x="761" d="M37 287q17 188 86.5 333.5t176.5 221.5q95 68 202 68q14 0 28 -1q42 -2 115 -16l84 559h59l-163 -1096q-19 -141 -23 -217v-14q0 -41 16 -61q16 -19 48 -20q7 0 14 1q6 0 22 4l-14 -53q-14 -4 -35 -4q-58 0 -85 31.5t-27 99.5q0 53 8 94l12 94q-76 -153 -123 -213 q-48 -60 -97 -89t-112 -32h-14q-94 0 -141 76q-40 64 -40 172q0 29 3 62zM96 229q0 -103 40 -154q34 -43 93 -43q10 0 21 1q68 9 121 56.5t116 154.5q30 51 86 168l64 428q-83 17 -140 17q-14 0 -26 -1q-193 -18 -297 -262q-78 -186 -78 -365z" />
<glyph unicode="e" horiz-adv-x="634" d="M45 324q0 151 55 289t146.5 221.5t191.5 83.5q89 0 139 -48q42 -41 42 -104q0 -11 -1 -23q-9 -80 -72 -148t-188 -132q-116 -62 -254 -111q0 -6 -1 -17t-1 -16q-1 -16 -1 -32q0 -103 46 -173q53 -80 144 -79q140 0 256 180l41 -33q-69 -106 -142.5 -155.5t-162.5 -49.5 q-61 0 -112.5 30.5t-82.5 84.5q-43 74 -43 232zM109 397q114 44 221 105q118 66 172.5 128.5t54.5 131.5q0 46 -32.5 74t-86.5 28q-120 0 -212 -131.5t-117 -335.5z" />
<glyph unicode="f" horiz-adv-x="405" d="M-254 -547l2 55q44 -8 76 -8q152 0 209 138q22 49 37 139q13 72 26 166l117 895h-168l8 49h166l21 143q17 136 36.5 205.5t53.5 116.5q70 95 215 104h16q34 0 78 -6l-8 -55q-24 4 -29 4q-24 3 -45 3q-109 0 -166 -63q-37 -40 -54.5 -101.5t-39.5 -225.5l-18 -125h204 l-8 -49h-203l-104 -797q-26 -202 -42.5 -285t-43.5 -147q-31 -72 -101 -118t-149 -46q-51 0 -86 8z" />
<glyph unicode="g" horiz-adv-x="700" d="M-127 -307q0 144 172 235q61 32 166 74q-80 35 -98 49q-45 31 -45 75v5q2 34 22.5 59t87.5 72q-108 74 -108 225q0 180 86 300t221 126h11q134 0 196 -135q73 81 111.5 108t80.5 27q15 0 27 -2l-8 -67q-10 2 -21 2q-47 0 -86 -22.5t-94 -80.5q9 -43 9 -89q0 -12 -1 -25 q-10 -169 -97.5 -281t-207.5 -112q-37 0 -84 12q-51 -38 -68.5 -60t-15.5 -47q1 -21 18 -36.5t60 -36.5l233 -107q60 -28 81.5 -41t39.5 -31q57 -54 57 -129q0 -136 -117.5 -229.5t-289.5 -93.5q-148 0 -243 72t-95 184zM-63 -309q0 -86 79 -143.5t199 -57.5q150 0 249 75 q93 71 93 174v11q-1 42 -19 71t-57 54q-29 20 -162 78q-25 10 -43 18l-22 11q-101 -40 -151.5 -66.5t-86.5 -56.5q-43 -38 -61 -76.5t-18 -91.5zM131 489q0 -89 40.5 -142t109.5 -58h14q95 0 162 87q72 95 84 255q1 16 1 30q0 83 -38 137q-46 62 -131 62 q-103 0 -172.5 -106.5t-69.5 -264.5z" />
<glyph unicode="h" horiz-adv-x="765" d="M47 0l217 1452h60l-140 -903q56 111 107 192q105 157 239 172q11 1 21 1q41 0 73 -18q42 -23 58 -67q12 -33 12 -84q0 -19 -2 -40q-8 -78 -12 -113l-88 -592h-62l91 594q9 58 12 117q1 14 1 26q0 121 -101 121h-9q-45 -1 -92 -30.5t-86 -79.5q-67 -87 -135 -226l-12 -22 l-13 -25l-12 -24l-68 -451h-59z" />
<glyph unicode="i" horiz-adv-x="284" d="M45 0l133 887h60l-134 -887h-59zM224 1284q14 18 36 19h3q19 0 31 -13q11 -12 11 -32v-7q-1 -31 -17 -49q-15 -17 -36 -16h-4q-20 2 -30 16q-10 12 -9 31q-1 30 15 51z" />
<glyph unicode="j" horiz-adv-x="284" d="M-309 -487q8 -1 21 -2t22 -2t14 -1q91 0 144.5 38.5t87.5 129.5q16 43 38 160q1 4 12.5 75t16.5 107l131 869h60l-127 -854q-31 -204 -46 -272t-42 -132q-35 -85 -105.5 -130.5t-165.5 -45.5q-38 0 -61 2v58zM224 1284q14 18 36 19h3q20 0 31 -13q11 -12 11 -32v-7 q-1 -30 -17 -49q-15 -16 -36 -16h-4q-19 2 -30 16q-9 12 -9 31q0 29 15 51z" />
<glyph unicode="k" horiz-adv-x="708" d="M45 0l217 1452h60l-142 -915q100 195 186 282t181 92h9q66 0 108 -39q45 -42 45 -112q0 -182 -344 -375l258 -385h-72l-262 393q191 103 279 193q83 86 83 170v10q-3 46 -37 72q-28 21 -66 21q-9 0 -18 -1q-113 -15 -221 -174q-73 -109 -141 -235l-64 -449h-59z" />
<glyph unicode="l" horiz-adv-x="284" d="M45 0l217 1452h60l-218 -1452h-59z" />
<glyph unicode="m" horiz-adv-x="1226" d="M51 0l76 510q26 171 26 263q0 15 -1 28q-3 43 -21 84l55 26q17 -29 22 -57t5 -98q0 -60 -12 -150v-6l-2 -4v-4q93 175 165.5 246t165.5 75h9q39 0 72 -16q37 -18 55 -51q18 -34 18 -98q0 -30 -4 -66q-1 -7 -3.5 -37.5t-4.5 -52.5q39 75 80 141q109 171 249 180h13 q33 -1 63 -13q36 -16 56 -44q25 -39 25 -117q0 -15 -1 -32q-3 -55 -12 -105l-90 -602h-60l84 555q15 110 19 154q1 14 1 27q0 122 -104 122q-44 0 -90.5 -27t-85.5 -73q-40 -50 -71.5 -101t-90.5 -163l-73 -494h-60l84 563q15 99 15 158q0 76 -26 109q-23 29 -69 29 q-7 0 -14 -1q-86 -6 -156.5 -84t-173.5 -280l-73 -494h-60z" />
<glyph unicode="n" horiz-adv-x="770" d="M51 0l76 510q26 171 26 263q0 15 -1 28q-3 43 -21 84l55 26q28 -45 28 -125q0 -15 -1 -30q-5 -87 -18 -199q82 177 162.5 261t177.5 95q11 1 21 1q39 0 72 -18q41 -23 58 -67q12 -33 12 -84q0 -19 -2 -40q-8 -78 -12 -113l-88 -592h-61l90 594q9 58 12 117q1 14 1 26 q0 121 -101 121h-9q-45 -1 -92 -30.5t-86 -79.5q-67 -87 -135 -226l-12 -22l-13 -25l-12 -24l-67 -451h-60z" />
<glyph unicode="o" horiz-adv-x="733" d="M51 287v43q0 138 57.5 287.5t137.5 218.5q42 36 97 57.5t103 21.5q65 0 116 -27.5t79 -78.5q22 -43 30.5 -91t8.5 -132q0 -133 -41.5 -264t-112.5 -224q-92 -121 -247 -121q-60 0 -110 27.5t-75 73.5q-28 55 -37 121q-6 44 -6 88zM111 322q0 -149 32 -207 q19 -36 60.5 -59t87.5 -23q124 0 194 102q64 92 98.5 212.5t34.5 250.5q0 137 -46 200.5t-146 63.5q-54 0 -111 -37.5t-94 -97.5q-50 -79 -80 -190.5t-30 -214.5z" />
<glyph unicode="p" horiz-adv-x="784" d="M-47 133l10 64q34 -32 57.5 -50t73.5 -49l133 899l56 13l-70 -451q72 139 115 205q47 70 106 108.5t121 38.5q103 0 153 -77q42 -62 42 -168q0 -23 -2 -48q-10 -142 -58.5 -276.5t-122.5 -228.5q-105 -133 -282 -133q-75 0 -144 34l-88 -581h-59l90 608q-78 46 -131 92z M152 70q75 -37 141 -37q95 0 162.5 47.5t126.5 155.5q46 86 74 192.5t32 212.5q1 12 1 24q0 89 -35 139q-35 52 -103 52h-10q-86 -4 -151 -79.5t-179 -301.5z" />
<glyph unicode="q" horiz-adv-x="751" d="M37 287q24 276 170 467q78 103 199 143q47 12 124 12q35 0 117 -12q7 -2 27 -5.5t31 -6.5l-218 -1452h-59l133 878q-74 -152 -123 -211q-90 -114 -209 -120h-14q-94 0 -141 75q-40 64 -40 170q0 29 3 62zM96 231q0 -103 40 -154q34 -43 93 -43q10 0 21 1q68 9 121 56.5 t116 154.5q29 46 86 166l64 428q-85 15 -139 15q-15 0 -27 -1q-95 -7 -170.5 -74t-126.5 -186q-78 -186 -78 -363z" />
<glyph unicode="r" horiz-adv-x="489" d="M49 0l76 510q26 171 26 263q0 15 -1 28q-3 43 -21 84l55 26q28 -45 28 -125q0 -15 -1 -30q-5 -94 -23 -221q103 214 168 291.5t148 84.5q7 1 14 1q25 0 53 -9l-20 -59q-24 5 -46 5q-9 0 -18 -1q-48 -8 -92 -50t-98 -132q-68 -116 -121 -224l-67 -442h-60z" />
<glyph unicode="s" horiz-adv-x="507" d="M-57 70l16 61q57 -51 109 -72.5t118 -21.5q83 0 136 57t53 148q0 60 -26.5 99t-129.5 128q-71 62 -100 110.5t-29 106.5q0 97 68.5 163t169.5 66q90 0 168 -36l-9 -62q-87 43 -161 43q-76 0 -125 -45.5t-49 -116.5q0 -46 21.5 -83.5t76.5 -88.5q18 -16 45.5 -41t30.5 -28 q63 -59 88.5 -106t25.5 -105q0 -116 -75 -191t-191 -75q-127 0 -231 90z" />
<glyph unicode="t" horiz-adv-x="489" d="M35 838l6 39l123 4q49 1 62 11.5t22 55.5l31 162h40l-32 -223h221l-6 -49h-223l-89 -588q-8 -74 -8 -105q0 -60 25.5 -84t85.5 -24q66 0 149 45l13 -51q-92 -49 -187 -49q-72 0 -112 45q-35 40 -36 106q0 8 1 17q3 51 12 110l86 578h-184z" />
<glyph unicode="u" horiz-adv-x="755" d="M70 193q6 49 12 102l88 592h61l-92 -608q-10 -85 -10 -134q0 -51 28.5 -81.5t75.5 -30.5q84 0 165 95t182 312l65 447h60l-76 -514q-6 -35 -14 -95t-11 -81q-4 -62 -4 -82q0 -63 51 -72q15 -2 45 4l-10 -51q-18 -4 -43 -4q-56 3 -79 31t-23 92q0 41 12 147l4 25l2 22 l4 25q-100 -207 -168 -273q-84 -84 -176 -84q-151 0 -151 171q0 21 2 45z" />
<glyph unicode="v" horiz-adv-x="645" d="M68 877l57 20l92 -594q2 -14 7 -51.5t7 -48.5q0 -2 3.5 -25t5.5 -39l2 -16l2 -19l2 -16q50 104 55 115q19 46 49 100l303 594l52 -20l-453 -877h-43z" />
<glyph unicode="w" horiz-adv-x="1040" d="M68 877l57 20l94 -604q10 -70 14 -100q14 -109 15 -117q79 164 100 203l162 311l-47 287l55 20l94 -594q21 -134 27 -215q34 73 70 143q16 36 34 72l306 594l51 -20l-455 -877h-41l-84 514l-264 -514h-45z" />
<glyph unicode="x" horiz-adv-x="612" d="M-61 10l337 463l-180 404l54 20l163 -377l277 377l49 -20l-303 -406l207 -461l-54 -20l-190 430l-309 -430z" />
<glyph unicode="y" horiz-adv-x="653" d="M-301 -541l2 56q49 -10 88 -10q14 0 27 1q107 9 193.5 112t232.5 390l-174 869l59 20l115 -604q20 -106 34 -215q37 78 54 115q14 30 24 51.5t13.5 28t5.5 11t4 9.5l287 604l51 -20l-412 -857q-160 -333 -280 -460q-107 -113 -231 -113q-15 0 -30 2q-2 0 -63 10z" />
<glyph unicode="z" horiz-adv-x="573" d="M-47 25l575 813h-415l6 49h481l12 -25l-573 -809h465l-8 -53h-531z" />
<glyph unicode="{" horiz-adv-x="1214" d="M82 530q0 135 47 286t125 265q92 136 216.5 209.5t264.5 73.5q207 0 333 -144.5t126 -383.5q0 -394 -233 -664q-171 -195 -424 -195q-95 0 -182.5 39t-147.5 107q-125 140 -125 407zM147 520q0 -218 111.5 -349.5t294.5 -131.5q105 0 205 48.5t166 131.5 q95 120 149.5 285t54.5 334q0 207 -112.5 337t-292.5 130q-122 0 -230 -65t-186 -185q-75 -116 -117.5 -257.5t-42.5 -277.5zM299 1333q2 28 15.5 46.5t35.5 19.5q22 2 34 -12t11 -39q-1 -31 -17.5 -49.5t-39.5 -16.5q-19 2 -29.5 15.5t-9.5 35.5zM1096 1333q2 28 15.5 46.5 t35.5 19.5q22 2 34 -12t11 -39q-1 -31 -17.5 -49.5t-39.5 -16.5q-19 2 -29.5 15.5t-9.5 35.5z" />
<glyph unicode="}" horiz-adv-x="1134" d="M106 340q0 73 19 190l121 813h65l-121 -806q-16 -118 -16 -193q0 -135 98.5 -221t253.5 -86q123 0 215.5 46t141.5 132q32 56 51 125.5t39 202.5l121 800h65l-121 -796q-23 -162 -41.5 -229.5t-58.5 -131.5q-57 -97 -166.5 -153t-241.5 -56q-189 0 -306.5 101t-117.5 262 zM455 1333q2 28 15.5 46.5t35.5 19.5q22 2 34 -12t11 -39q-1 -31 -17.5 -49.5t-39.5 -16.5q-19 2 -29.5 15.5t-9.5 35.5zM834 1333q2 28 15.5 46.5t35.5 19.5q22 2 34 -12t11 -39q-1 -30 -18 -49t-40 -17q-19 2 -29 15.5t-9 35.5z" />
<glyph unicode="~" d="M-90 0l633 1137q-41 53 -35 135q8 77 59 128.5t121 51.5q66 0 105 -53.5t30 -130.5q-9 -80 -67 -135l225 -1133h-66l-100 520h-553l-285 -520h-67zM293 571h512l-105 529q-29 -10 -57 -10q-25 0 -59 12zM555 1270q-4 -55 22 -92.5t70 -40.5q50 -3 87.5 35t41.5 98 q4 57 -24 96t-72 39q-51 0 -86 -37.5t-39 -97.5z" />
<glyph unicode="&#xa1;" horiz-adv-x="313" d="M27 0l180 1090h49l-152 -1090h-77zM207 1280q0 34 16.5 56t42.5 22q21 0 33 -16.5t10 -43.5q-2 -29 -18 -49t-39 -20q-20 0 -32.5 14t-12.5 37z" />
<glyph unicode="&#xa2;" horiz-adv-x="587" d="M74 500q0 134 50 279t126 231q73 84 164 102l26 182h58l-27 -176q64 -2 104.5 -24t73.5 -76l-47 -37q-31 47 -64.5 66t-82.5 16q-71 -3 -129.5 -49t-98.5 -129q-40 -86 -65 -190t-25 -191q0 -126 44 -197t122 -71q138 0 229 139l37 -35q-47 -74 -111 -116t-136 -46 l-27 -178h-55l26 182q-89 10 -140.5 95.5t-51.5 222.5z" />
<glyph unicode="&#xa3;" horiz-adv-x="878" d="M-47 37q120 156 180 256t133 270h-221l8 51h232q19 55 34 93q17 50 35 98t34 89.5t20 51.5q63 158 174.5 250t253.5 102q63 3 106 -6l-8 -59q-47 8 -88 8q-94 0 -177 -47t-143 -135q-28 -44 -73 -154q-51 -133 -62 -168q-3 -8 -18 -50t-25 -73h361l-9 -51h-372 q-67 -163 -126 -266.5t-151 -220.5q106 -20 178 -26.5t181 -6.5q145 0 321 31q22 3 80 16l-23 -59q-78 -16 -88 -17q-158 -24 -290 -24q-131 0 -218 9t-239 38z" />
<glyph unicode="&#xa4;" horiz-adv-x="1007" d="M61 283l95 84q2 1 18 15t31 24q41 33 49 40q-57 80 -57 177q0 154 125 276q-9 9 -21.5 22.5t-15.5 16.5q-36 40 -37 41l-70 82l33 31l72 -84q4 -6 32 -41q4 -5 15 -19.5t18 -23.5q118 86 244 86q125 0 211 -86q38 34 45 43q9 8 20 17.5t17 15t10 8.5l94 84l25 -31 l-94 -82q-3 -3 -9.5 -8.5t-18 -15t-20.5 -17.5q-22 -15 -49 -39q58 -79 58 -178q0 -153 -125 -275q8 -8 20.5 -21.5t16.5 -18.5q32 -36 34 -39l72 -84l-35 -29l-69 82q-3 3 -35 43q-3 4 -14.5 17.5t-18.5 23.5q-114 -86 -244 -86q-123 0 -209 86q-34 -31 -47 -41 q-15 -13 -45 -43l-96 -82zM238 631q0 -110 72 -183t182 -73q138 0 243 103t105 239q0 106 -73 179t-179 73q-139 0 -244.5 -102t-105.5 -236z" />
<glyph unicode="&#xa7;" horiz-adv-x="630" d="M-137 -381l37 45q84 -59 155 -59q86 0 117.5 53t24.5 186q-2 38 -11 119l-8 86l-4 41l-51 588q-9 98 -6 162q8 156 72.5 296t166.5 226.5t213 93.5q89 6 154 -33l-8 -59q-78 45 -144 45q-71 0 -101 -38t-30 -130q0 -35 13 -172l12 -129l45 -512q12 -144 12 -252 q0 -119 -39.5 -233t-105 -198t-154 -135.5t-180.5 -51.5q-58 0 -94.5 12.5t-85.5 48.5zM178 731l58 -625q6 -80 12 -165q8 -112 1.5 -172.5t-32.5 -120.5q48 37 74 63q75 80 122.5 204.5t47.5 244.5v76q0 49 -8 151l-52 555q-2 22 -10 123q-2 37 -2 63l-2 46q0 79 6.5 113 t30.5 83q-128 -105 -195.5 -279.5t-50.5 -359.5z" />
<glyph unicode="&#xa8;" horiz-adv-x="0" d="M-76 1237q1 26 17 44.5t36 18.5q17 0 28 -12t11 -31q0 -28 -16 -47.5t-39 -19.5q-19 0 -29 12.5t-8 34.5zM205 1237q1 26 17 44.5t36 18.5q17 0 28 -12t11 -31q0 -28 -16 -47.5t-39 -19.5q-19 0 -29 12.5t-8 34.5z" />
<glyph unicode="&#xab;" horiz-adv-x="663" d="M45 442l332 379l22 -49l-288 -330l190 -327l-37 -45zM301 442l330 379l24 -49l-288 -330l190 -327l-39 -45z" />
<glyph unicode="&#xad;" horiz-adv-x="489" d="M59 453l9 55h370l-8 -55h-371z" />
<glyph unicode="&#xaf;" horiz-adv-x="0" d="M-104 1217l8 53h415l-8 -53h-415z" />
<glyph unicode="&#xb4;" horiz-adv-x="0" d="M12 1110l242 276l78 -10l-277 -274z" />
<glyph unicode="&#xb6;" horiz-adv-x="1073" d="M18 1020q0 91 48 167t131 116q49 23 102 31.5t143 8.5h529v-49h-248v-1697h-47v1697h-197v-1697h-47v1105q-93 -1 -147 9t-105 37q-75 43 -118.5 115.5t-43.5 156.5z" />
<glyph unicode="&#xb8;" horiz-adv-x="0" d="M-254 -393q65 67 129.5 158t99.5 167l54 -12q-79 -178 -242 -344z" />
<glyph unicode="&#xbb;" horiz-adv-x="663" d="M4 119l289 330l-191 327l37 45l219 -372l-329 -379zM260 119l289 330l-191 327l37 45l219 -372l-331 -379z" />
<glyph unicode="&#xbf;" horiz-adv-x="649" d="M23 250q0 85 45.5 167t144.5 175q124 116 176 180.5t75 131t32 183.5h59q-7 -103 -24.5 -166.5t-53.5 -121.5q-28 -45 -104 -121q-59 -62 -121 -121q-85 -85 -123.5 -157.5t-38.5 -147.5q0 -95 67 -156t171 -61q51 0 93.5 13t98.5 46l6 -55q-61 -34 -107 -48t-102 -14 q-126 0 -210 78t-84 195zM485 1280q0 34 18 56t44 22q20 0 32 -17t11 -43q-2 -29 -18.5 -49t-39.5 -20q-22 0 -34.5 14t-12.5 37z" />
<glyph unicode="&#xc0;" d="M-90 0l766 1380h31l274 -1380h-66l-100 520h-553l-285 -520h-67zM293 571h512l-103 514q-14 84 -14 86l-2 11l-4 22l-4 23l-4 20l-4 23q-25 -53 -95 -185zM590 1663l65 6l101 -272l-37 -8z" />
<glyph unicode="&#xc1;" d="M-90 0l766 1380h31l274 -1380h-66l-100 520h-553l-285 -520h-67zM293 571h512l-103 514q-14 84 -14 86l-2 11l-4 22l-4 23l-4 20l-4 23q-25 -53 -95 -185zM612 1395l242 276l78 -10l-277 -275z" />
<glyph unicode="&#xc2;" d="M-90 0l766 1380h31l274 -1380h-66l-100 520h-553l-285 -520h-67zM293 571h512l-103 514q-14 84 -14 86l-2 11l-4 22l-4 23l-4 20l-4 23q-25 -53 -95 -185zM463 1397l258 276h27l129 -276l-50 -13l-106 230l-207 -230z" />
<glyph unicode="&#xc3;" d="M-90 0l766 1380h31l274 -1380h-66l-100 520h-553l-285 -520h-67zM293 571h512l-103 514q-14 84 -14 86l-2 11l-4 22l-4 23l-4 20l-4 23q-25 -53 -95 -185zM473 1470l8 64q40 42 68 59t57 17t70 -23q3 -2 8 -6t8 -6l13 -8l12 -11l14 -10q35 -28 72 -28q29 0 57 18t80 68 l-8 -62q-41 -43 -71 -60.5t-62 -17.5q-24 0 -64 21q-2 2 -7 5t-7 5l-29 21l-16 10q-44 33 -78 33q-26 -1 -52.5 -20t-72.5 -69z" />
<glyph unicode="&#xc4;" d="M-90 0l766 1380h31l274 -1380h-66l-100 520h-553l-285 -520h-67zM293 571h512l-103 514q-14 84 -14 86l-2 11l-4 22l-4 23l-4 20l-4 23q-25 -53 -95 -185zM524 1522q1 26 17.5 44.5t36.5 18.5q17 0 27.5 -12t10.5 -31q0 -28 -16 -47.5t-39 -19.5q-19 0 -29 12.5t-8 34.5z M805 1522q1 26 17 44.5t36 18.5q17 0 28 -12t11 -31q0 -28 -16 -47.5t-39 -19.5q-19 0 -29 12.5t-8 34.5z" />
<glyph unicode="&#xc5;" d="M-90 0l754 1358q-55 10 -84 57t-23 115q8 74 56.5 122t115.5 48q63 0 100.5 -50.5t28.5 -123.5q-7 -67 -46 -111.5t-101 -56.5l270 -1358h-66l-100 520h-553l-285 -520h-67zM293 571h512l-103 514q-14 84 -14 86l-2 11l-4 22l-4 23l-4 20l-4 23q-49 -100 -95 -185z M602 1526q-3 -53 21 -87.5t67 -37.5q47 -3 82.5 33t40.5 92q4 54 -22.5 91.5t-69.5 37.5q-47 0 -81 -36t-38 -93z" />
<glyph unicode="&#xc6;" horiz-adv-x="1583" d="M-90 0l1051 1343h624l-8 -55h-524l-82 -547h467l-8 -55h-467l-95 -629h658l-17 -57h-714l77 514h-487l-399 -514h-76zM426 567h455l108 723z" />
<glyph unicode="&#xc7;" horiz-adv-x="1032" d="M82 539q0 173 68.5 345t185.5 290q190 190 444 190q90 0 164.5 -23t153.5 -77l-27 -58q-82 54 -153 76.5t-162 22.5q-137 0 -257.5 -73.5t-209.5 -211.5q-68 -104 -105 -231t-37 -254q0 -121 34.5 -221t97.5 -162q52 -51 132 -82t158 -31q128 0 216 31t190 112l-10 -76 q-104 -72 -202 -103t-208 -26q-227 10 -350 156t-123 406zM262 -393q65 67 130 158.5t100 166.5l53 -12q-79 -178 -242 -344z" />
<glyph unicode="&#xc8;" horiz-adv-x="839" d="M49 0l201 1343h590l-9 -55h-524l-82 -547h467l-8 -55h-467l-94 -629h657l-16 -57h-715zM479 1663l66 6l100 -272l-37 -8z" />
<glyph unicode="&#xc9;" horiz-adv-x="839" d="M49 0l201 1343h590l-9 -55h-524l-82 -547h467l-8 -55h-467l-94 -629h657l-16 -57h-715zM502 1395l241 276l78 -10l-276 -275z" />
<glyph unicode="&#xca;" horiz-adv-x="839" d="M49 0l201 1343h590l-9 -55h-524l-82 -547h467l-8 -55h-467l-94 -629h657l-16 -57h-715zM352 1397l258 276h27l129 -276l-49 -13l-107 230l-207 -230z" />
<glyph unicode="&#xcb;" horiz-adv-x="839" d="M49 0l201 1343h590l-9 -55h-524l-82 -547h467l-8 -55h-467l-94 -629h657l-16 -57h-715zM414 1522q1 26 17 44.5t36 18.5q17 0 28 -12t11 -31q0 -28 -16 -47.5t-39 -19.5q-19 0 -29 12.5t-8 34.5zM694 1522q1 26 17.5 44.5t36.5 18.5q17 0 27.5 -12t10.5 -31 q0 -28 -16 -47.5t-39 -19.5q-19 0 -29 12.5t-8 34.5z" />
<glyph unicode="&#xcc;" horiz-adv-x="299" d="M49 0l201 1343h65l-200 -1343h-66zM209 1663l65 6l101 -272l-37 -8z" />
<glyph unicode="&#xcd;" horiz-adv-x="299" d="M49 0l201 1343h65l-200 -1343h-66zM231 1395l242 276l78 -10l-277 -275z" />
<glyph unicode="&#xce;" horiz-adv-x="299" d="M49 0l201 1343h65l-200 -1343h-66zM82 1397l256 276h27l131 -276l-52 -13l-104 230l-207 -230z" />
<glyph unicode="&#xcf;" horiz-adv-x="299" d="M49 0l201 1343h65l-200 -1343h-66zM143 1522q1 26 17.5 44.5t36.5 18.5q17 0 28 -12t11 -31q0 -28 -16.5 -47.5t-39.5 -19.5q-19 0 -29 12.5t-8 34.5zM422 1522q1 26 17 44.5t36 18.5q17 0 28 -12t11 -31q0 -28 -16 -47.5t-39 -19.5q-19 0 -29 12.5t-8 34.5z" />
<glyph unicode="&#xd1;" horiz-adv-x="1251" d="M49 0l203 1350l33 12l555 -938q16 -26 39.5 -66t29 -48.5t21.5 -36t19.5 -34t19.5 -35.5t26 -47.5t35 -64.5l2 27q6 49 23 184q14 92 16 117l139 923h58l-201 -1349l-35 -12l-555 936q-16 28 -39.5 67t-28.5 47.5t-21 36t-18.5 32t-19.5 35.5t-25.5 47t-35.5 66 q-6 -51 -15 -108q-5 -53 -28 -219l-137 -922h-60zM567 1470l11 64q40 42 67.5 59t56.5 17q27 0 68 -23q12 -8 16 -12l13 -8l14 -11l12 -10q35 -28 72 -28q29 0 58.5 18t80.5 68l-10 -62q-41 -43 -70.5 -60.5t-60.5 -17.5q-24 0 -64 21q-12 8 -14 10l-16 10l-15 11l-14 10 q-44 33 -78 33q-26 -2 -54 -21t-73 -68z" />
<glyph unicode="&#xd2;" horiz-adv-x="1214" d="M82 530q0 135 47 286t125 265q92 136 216.5 209.5t264.5 73.5q207 0 333 -144.5t126 -383.5q0 -394 -233 -664q-171 -195 -424 -195q-95 0 -182.5 39t-147.5 107q-125 140 -125 407zM147 520q0 -218 111.5 -349.5t294.5 -131.5q105 0 205 48.5t166 131.5 q95 120 149.5 285t54.5 334q0 207 -112.5 337t-292.5 130q-122 0 -230 -65t-186 -185q-75 -116 -117.5 -257.5t-42.5 -277.5zM666 1663l65 6l100 -272l-36 -8z" />
<glyph unicode="&#xd3;" horiz-adv-x="1214" d="M82 530q0 135 47 286t125 265q92 136 216.5 209.5t264.5 73.5q207 0 333 -144.5t126 -383.5q0 -394 -233 -664q-171 -195 -424 -195q-95 0 -182.5 39t-147.5 107q-125 140 -125 407zM147 520q0 -218 111.5 -349.5t294.5 -131.5q105 0 205 48.5t166 131.5 q95 120 149.5 285t54.5 334q0 207 -112.5 337t-292.5 130q-122 0 -230 -65t-186 -185q-75 -116 -117.5 -257.5t-42.5 -277.5zM688 1395l244 276l78 -10l-279 -275z" />
<glyph unicode="&#xd4;" horiz-adv-x="1214" d="M82 530q0 135 47 286t125 265q92 136 216.5 209.5t264.5 73.5q207 0 333 -144.5t126 -383.5q0 -394 -233 -664q-171 -195 -424 -195q-95 0 -182.5 39t-147.5 107q-125 140 -125 407zM147 520q0 -218 111.5 -349.5t294.5 -131.5q105 0 205 48.5t166 131.5 q95 120 149.5 285t54.5 334q0 207 -112.5 337t-292.5 130q-122 0 -230 -65t-186 -185q-75 -116 -117.5 -257.5t-42.5 -277.5zM541 1397l256 276h26l129 -276l-49 -13l-106 230l-207 -230z" />
<glyph unicode="&#xd5;" horiz-adv-x="1214" d="M82 530q0 135 47 286t125 265q92 136 216.5 209.5t264.5 73.5q207 0 333 -144.5t126 -383.5q0 -394 -233 -664q-171 -195 -424 -195q-95 0 -182.5 39t-147.5 107q-125 140 -125 407zM147 520q0 -218 111.5 -349.5t294.5 -131.5q105 0 205 48.5t166 131.5 q95 120 149.5 285t54.5 334q0 207 -112.5 337t-292.5 130q-122 0 -230 -65t-186 -185q-75 -116 -117.5 -257.5t-42.5 -277.5zM549 1470l10 64q40 42 68 59t57 17q27 0 68 -23q3 -2 8 -6t8 -6l12 -8l15 -11l12 -10q35 -28 72 -28q29 0 57.5 18t81.5 68l-10 -62 q-41 -43 -71.5 -60.5t-62.5 -17.5q-19 0 -63 21q-2 2 -14 10l-43 31q-44 33 -80 33q-26 -1 -52.5 -20t-72.5 -69z" />
<glyph unicode="&#xd6;" horiz-adv-x="1214" d="M82 530q0 135 47 286t125 265q92 136 216.5 209.5t264.5 73.5q207 0 333 -144.5t126 -383.5q0 -394 -233 -664q-171 -195 -424 -195q-95 0 -182.5 39t-147.5 107q-125 140 -125 407zM147 520q0 -218 111.5 -349.5t294.5 -131.5q105 0 205 48.5t166 131.5 q95 120 149.5 285t54.5 334q0 207 -112.5 337t-292.5 130q-122 0 -230 -65t-186 -185q-75 -116 -117.5 -257.5t-42.5 -277.5zM600 1522q1 26 17 44.5t36 18.5q17 0 28 -12t11 -31q0 -28 -16 -47.5t-39 -19.5q-19 0 -29 12.5t-8 34.5zM881 1522q1 26 17 44.5t36 18.5 q17 0 28 -12t11 -31q0 -28 -16 -47.5t-39 -19.5q-19 0 -29 12.5t-8 34.5z" />
<glyph unicode="&#xd7;" horiz-adv-x="1007" d="M102 315l385 334l-284 336l33 29l284 -334l385 334l27 -29l-385 -336l284 -334l-34 -28l-285 334l-385 -334z" />
<glyph unicode="&#xd8;" horiz-adv-x="1214" d="M-6 -23l176 199q-86 140 -86 354q0 137 46.5 285.5t125.5 265.5q91 136 215.5 209.5t265.5 73.5q105 0 195 -42t153 -120l162 182l39 -20l-176 -197q86 -138 86 -331q0 -394 -233 -664q-171 -195 -422 -195q-103 0 -192.5 42.5t-153.5 121.5l-164 -184zM150 520 q0 -169 69 -289l819 920q-57 74 -137.5 114t-175.5 40q-122 0 -230 -65t-186 -185q-75 -118 -117 -258t-42 -277zM244 195q117 -156 313 -156q103 0 203 48.5t166 131.5q95 120 149.5 285t54.5 334q0 157 -67 274z" />
<glyph unicode="&#xd9;" horiz-adv-x="1134" d="M106 340q0 73 19 190l121 813h65l-121 -806q-16 -118 -16 -193q0 -135 98.5 -221t253.5 -86q123 0 215.5 46t141.5 132q32 56 51 125.5t39 202.5l121 800h65l-121 -796q-23 -162 -41.5 -229.5t-58.5 -131.5q-57 -97 -166.5 -153t-241.5 -56q-189 0 -306.5 101t-117.5 262 zM627 1663l67 6l99 -272l-37 -8z" />
<glyph unicode="&#xda;" horiz-adv-x="1134" d="M106 340q0 73 19 190l121 813h65l-121 -806q-16 -118 -16 -193q0 -135 98.5 -221t253.5 -86q123 0 215.5 46t141.5 132q32 56 51 125.5t39 202.5l121 800h65l-121 -796q-23 -162 -41.5 -229.5t-58.5 -131.5q-57 -97 -166.5 -153t-241.5 -56q-189 0 -306.5 101t-117.5 262 zM651 1395l242 276l78 -10l-277 -275z" />
<glyph unicode="&#xdb;" horiz-adv-x="1134" d="M106 340q0 73 19 190l121 813h65l-121 -806q-16 -118 -16 -193q0 -135 98.5 -221t253.5 -86q123 0 215.5 46t141.5 132q32 56 51 125.5t39 202.5l121 800h65l-121 -796q-23 -162 -41.5 -229.5t-58.5 -131.5q-57 -97 -166.5 -153t-241.5 -56q-189 0 -306.5 101t-117.5 262 zM502 1397l256 276h26l131 -276l-51 -13l-106 230l-205 -230z" />
<glyph unicode="&#xdc;" horiz-adv-x="1134" d="M106 340q0 73 19 190l121 813h65l-121 -806q-16 -118 -16 -193q0 -135 98.5 -221t253.5 -86q123 0 215.5 46t141.5 132q32 56 51 125.5t39 202.5l121 800h65l-121 -796q-23 -162 -41.5 -229.5t-58.5 -131.5q-57 -97 -166.5 -153t-241.5 -56q-189 0 -306.5 101t-117.5 262 zM561 1522q1 26 17 44.5t36 18.5q17 0 28 -12t11 -31q0 -28 -16 -47.5t-39 -19.5q-19 0 -29 12.5t-8 34.5zM842 1522q1 26 17 44.5t36 18.5q17 0 28 -12t11 -31q0 -28 -16 -47.5t-39 -19.5q-19 0 -29 12.5t-8 34.5z" />
<glyph unicode="&#xdd;" horiz-adv-x="905" d="M129 1333l57 21l283 -668l514 668l55 -21l-544 -704l-95 -629h-65l94 629zM535 1395l243 276l76 -10l-276 -275z" />
<glyph unicode="&#xdf;" horiz-adv-x="743" d="M-295 -492q47 -8 78 -8q152 0 209 138q21 54 35 139q4 20 8 48t8.5 63.5t7.5 54.5l115 936q19 149 45 233t72 141q44 57 107.5 89t129.5 32q110 0 173 -55t63 -150q0 -109 -97 -200l-24 -23q-22 -19 -131 -121q-57 -54 -77.5 -87t-20.5 -70q0 -60 57 -117l80 -78 q74 -72 101.5 -122t27.5 -113q0 -114 -75 -185t-194 -71q-105 0 -213 81l29 56q58 -46 100 -64t95 -18q88 0 143 53.5t55 138.5q0 54 -25.5 99.5t-88.5 105.5l-80 74q-37 34 -56 78.5t-14 85.5q5 67 78 145q4 5 57 55q54 50 76 72q75 69 105.5 123t27.5 113q-6 141 -180 141 q-73 0 -134.5 -47.5t-96.5 -130.5q-33 -80 -54 -258l-104 -844q-26 -208 -42 -289.5t-42 -142.5q-29 -71 -99.5 -117.5t-148.5 -46.5q-49 0 -86 8v55z" />
<glyph unicode="&#xe0;" horiz-adv-x="759" d="M37 287q25 277 170 467q79 105 199 141q45 14 124 14q35 0 117 -12q7 -2 27 -5.5t31 -6.5l-80 -529q-19 -141 -23 -217q-3 -52 16 -75.5t62 -18.5q6 0 22 4l-14 -53q-14 -4 -35 -4q-58 0 -85 31.5t-27 99.5q0 53 8 94l12 94q-44 -92 -69 -135t-54 -78q-91 -115 -209 -121 q-104 -6 -155 76t-37 234zM96 229q0 -103 40 -154t114 -42q68 9 121 56.5t116 154.5q30 51 86 168l64 428q-108 19 -166 14q-193 -18 -297 -262q-78 -186 -78 -363zM352 1378l66 6l100 -274l-37 -8z" />
<glyph unicode="&#xe1;" horiz-adv-x="761" d="M37 287q25 277 170 467q79 105 199 141q45 14 124 14q35 0 117 -12q7 -2 27 -5.5t31 -6.5l-80 -529q-19 -141 -23 -217q-3 -52 16 -75.5t62 -18.5q6 0 22 4l-14 -53q-14 -4 -35 -4q-58 0 -85 31.5t-27 99.5q0 53 8 94l12 94q-44 -92 -69 -135t-54 -78q-91 -115 -209 -121 q-104 -6 -155 76t-37 234zM96 229q0 -103 40 -154t114 -42q68 9 121 56.5t116 154.5q30 51 86 168l64 428q-108 19 -166 14q-193 -18 -297 -262q-78 -186 -78 -363zM375 1110l241 276l78 -10l-276 -274z" />
<glyph unicode="&#xe2;" horiz-adv-x="759" d="M37 287q25 277 170 467q79 105 199 141q45 14 124 14q35 0 117 -12q7 -2 27 -5.5t31 -6.5l-80 -529q-19 -141 -23 -217q-3 -52 16 -75.5t62 -18.5q6 0 22 4l-14 -53q-14 -4 -35 -4q-58 0 -85 31.5t-27 99.5q0 53 8 94l12 94q-44 -92 -69 -135t-54 -78q-91 -115 -209 -121 q-104 -6 -155 76t-37 234zM96 229q0 -103 40 -154t114 -42q68 9 121 56.5t116 154.5q30 51 86 168l64 428q-108 19 -166 14q-193 -18 -297 -262q-78 -186 -78 -363zM225 1112l256 277h27l131 -277l-51 -12l-105 229l-207 -229z" />
<glyph unicode="&#xe3;" horiz-adv-x="759" d="M37 287q25 277 170 467q79 105 199 141q45 14 124 14q35 0 117 -12q7 -2 27 -5.5t31 -6.5l-80 -529q-19 -141 -23 -217q-3 -52 16 -75.5t62 -18.5q6 0 22 4l-14 -53q-14 -4 -35 -4q-58 0 -85 31.5t-27 99.5q0 53 8 94l12 94q-44 -92 -69 -135t-54 -78q-91 -115 -209 -121 q-104 -6 -155 76t-37 234zM96 229q0 -103 40 -154t114 -42q68 9 121 56.5t116 154.5q30 51 86 168l64 428q-108 19 -166 14q-193 -18 -297 -262q-78 -186 -78 -363zM236 1184l8 63q73 76 125 76q28 0 69 -23q4 -3 9 -6t20 -14l12 -10l15 -10q36 -29 71 -29q29 0 57.5 18.5 t79.5 69.5l-8 -62q-41 -44 -70.5 -61.5t-62.5 -17.5q-21 0 -63 20l-15 10l-43 31q-51 36 -80 33q-26 -1 -52 -19.5t-72 -68.5z" />
<glyph unicode="&#xe4;" horiz-adv-x="759" d="M37 287q25 277 170 467q79 105 199 141q45 14 124 14q35 0 117 -12q7 -2 27 -5.5t31 -6.5l-80 -529q-19 -141 -23 -217q-3 -52 16 -75.5t62 -18.5q6 0 22 4l-14 -53q-14 -4 -35 -4q-58 0 -85 31.5t-27 99.5q0 53 8 94l12 94q-44 -92 -69 -135t-54 -78q-91 -115 -209 -121 q-104 -6 -155 76t-37 234zM96 229q0 -103 40 -154t114 -42q68 9 121 56.5t116 154.5q30 51 86 168l64 428q-108 19 -166 14q-193 -18 -297 -262q-78 -186 -78 -363zM289 1237q1 26 17 44.5t36 18.5q17 0 28 -12t11 -31q0 -28 -16 -47.5t-39 -19.5q-19 0 -29 12.5t-8 34.5z M569 1237q1 26 17.5 44.5t36.5 18.5q17 0 28 -12t11 -31q0 -28 -16.5 -47.5t-39.5 -19.5q-19 0 -29 12.5t-8 34.5z" />
<glyph unicode="&#xe5;" horiz-adv-x="759" d="M37 287q25 277 170 467q79 105 199 141q45 14 124 14q35 0 117 -12q7 -2 27 -5.5t31 -6.5l-80 -529q-19 -141 -23 -217q-3 -52 16 -75.5t62 -18.5q6 0 22 4l-14 -53q-14 -4 -35 -4q-58 0 -85 31.5t-27 99.5q0 53 8 94l12 94q-44 -92 -69 -135t-54 -78q-91 -115 -209 -121 q-104 -6 -155 76t-37 234zM96 229q0 -103 40 -154t114 -42q68 9 121 56.5t116 154.5q30 51 86 168l64 428q-108 19 -166 14q-193 -18 -297 -262q-78 -186 -78 -363zM330 1245q6 72 56 121t116 49q63 0 100.5 -50.5t28.5 -123.5q-9 -74 -57.5 -122t-114.5 -48 q-63 0 -99.5 49.5t-29.5 124.5zM375 1241q-4 -52 20.5 -87t67.5 -38q48 -3 83.5 32.5t39.5 92.5q4 54 -22.5 91.5t-69.5 37.5q-47 0 -81 -36t-38 -93z" />
<glyph unicode="&#xe6;" horiz-adv-x="1091" d="M37 223q0 114 34.5 239t94.5 228q60 104 146 164.5t175 60.5q96 0 168 -57l-10 -63q-76 73 -168 67q-77 -5 -146 -56t-120 -142q-54 -96 -83.5 -212t-29.5 -229q0 -91 35.5 -141.5t99.5 -50.5q148 0 271 243q-2 4 -2 11q-4 68 18 192q35 190 142 315.5t235 125.5 q89 0 139 -48.5t41 -126.5q-9 -79 -71.5 -146.5t-188.5 -133.5q-124 -65 -254 -111q0 -3 -1 -10t-1 -10v-13q0 -138 48 -211t139 -73q140 0 256 180l40 -33q-68 -106 -141 -155.5t-164 -49.5q-92 0 -151 59.5t-78 170.5q-128 -230 -281 -230q-94 0 -143 63t-49 183zM567 397 q122 48 219 105q120 66 175 128.5t55 131.5q0 46 -32.5 74t-86.5 28q-121 0 -214 -131.5t-116 -335.5z" />
<glyph unicode="&#xe7;" horiz-adv-x="587" d="M41 -393q65 67 129.5 158t99.5 167l54 -12q-79 -178 -242 -344zM45 299q0 100 30 212t81 204q53 97 126 150t156 53q65 0 107.5 -23t75.5 -78l-48 -37q-31 47 -64.5 66t-82.5 16q-146 -9 -227 -178q-40 -86 -65 -190t-25 -191q0 -126 43.5 -197t121.5 -71q139 0 230 139 l37 -35q-107 -162 -271 -162q-107 0 -166 84t-59 238z" />
<glyph unicode="&#xe8;" horiz-adv-x="634" d="M45 324q0 151 55 289t146.5 221.5t191.5 83.5q89 0 139 -48.5t41 -126.5q-9 -80 -72 -148t-188 -132q-116 -62 -254 -111q0 -6 -1 -17t-1 -16q-8 -125 45 -204.5t144 -79.5q140 0 256 180l41 -33q-69 -106 -142.5 -155.5t-162.5 -49.5q-61 0 -112.5 30.5t-82.5 84.5 q-43 74 -43 232zM109 397q114 44 221 105q118 66 172.5 128.5t54.5 131.5q0 46 -32.5 74t-86.5 28q-120 0 -212 -131.5t-117 -335.5zM307 1378l66 6l100 -274l-37 -8z" />
<glyph unicode="&#xe9;" horiz-adv-x="634" d="M45 324q0 151 55 289t146.5 221.5t191.5 83.5q89 0 139 -48.5t41 -126.5q-9 -80 -72 -148t-188 -132q-116 -62 -254 -111q0 -6 -1 -17t-1 -16q-8 -125 45 -204.5t144 -79.5q140 0 256 180l41 -33q-69 -106 -142.5 -155.5t-162.5 -49.5q-61 0 -112.5 30.5t-82.5 84.5 q-43 74 -43 232zM109 397q114 44 221 105q118 66 172.5 128.5t54.5 131.5q0 46 -32.5 74t-86.5 28q-120 0 -212 -131.5t-117 -335.5zM330 1110l241 276l78 -10l-276 -274z" />
<glyph unicode="&#xea;" horiz-adv-x="634" d="M45 324q0 151 55 289t146.5 221.5t191.5 83.5q89 0 139 -48.5t41 -126.5q-9 -80 -72 -148t-188 -132q-116 -62 -254 -111q0 -6 -1 -17t-1 -16q-8 -125 45 -204.5t144 -79.5q140 0 256 180l41 -33q-69 -106 -142.5 -155.5t-162.5 -49.5q-61 0 -112.5 30.5t-82.5 84.5 q-43 74 -43 232zM109 397q114 44 221 105q118 66 172.5 128.5t54.5 131.5q0 46 -32.5 74t-86.5 28q-120 0 -212 -131.5t-117 -335.5zM180 1112l256 277h27l131 -277l-51 -12l-105 229l-207 -229z" />
<glyph unicode="&#xeb;" horiz-adv-x="634" d="M45 324q0 151 55 289t146.5 221.5t191.5 83.5q89 0 139 -48.5t41 -126.5q-9 -80 -72 -148t-188 -132q-116 -62 -254 -111q0 -6 -1 -17t-1 -16q-8 -125 45 -204.5t144 -79.5q140 0 256 180l41 -33q-69 -106 -142.5 -155.5t-162.5 -49.5q-61 0 -112.5 30.5t-82.5 84.5 q-43 74 -43 232zM109 397q114 44 221 105q118 66 172.5 128.5t54.5 131.5q0 46 -32.5 74t-86.5 28q-120 0 -212 -131.5t-117 -335.5zM244 1237q1 26 17 44.5t36 18.5q17 0 28 -12t11 -31q0 -28 -16 -47.5t-39 -19.5q-19 0 -29 12.5t-8 34.5zM524 1237q1 26 17.5 44.5 t36.5 18.5q17 0 27.5 -12t10.5 -31q0 -28 -16 -47.5t-39 -19.5q-19 0 -29 12.5t-8 34.5z" />
<glyph unicode="&#xec;" horiz-adv-x="284" d="M45 0l133 887h60l-134 -887h-59zM131 1378l66 6l100 -274l-37 -8z" />
<glyph unicode="&#xed;" horiz-adv-x="284" d="M45 0l133 887h60l-134 -887h-59zM156 1110l241 276l78 -10l-276 -274z" />
<glyph unicode="&#xee;" horiz-adv-x="284" d="M6 1112l256 277h27l131 -277l-51 -12l-105 229l-207 -229zM45 0l133 887h60l-134 -887h-59z" />
<glyph unicode="&#xef;" horiz-adv-x="284" d="M45 0l133 887h60l-134 -887h-59zM68 1237q1 26 17 44.5t36 18.5q17 0 28 -12t11 -31q0 -28 -16.5 -47.5t-39.5 -19.5q-39 0 -36 47zM346 1237q1 26 17 44.5t36 18.5q17 0 28 -12t11 -31q0 -28 -16 -47.5t-39 -19.5q-19 0 -29 12.5t-8 34.5z" />
<glyph unicode="&#xf1;" horiz-adv-x="770" d="M51 0l76 510q30 199 25 291q-3 43 -21 84l55 26q33 -53 27 -155q-5 -87 -18 -199q82 177 162.5 261t177.5 95q52 6 93 -17t58 -67q16 -46 10 -124q-8 -78 -12 -113l-88 -592h-61l90 594q9 58 12 117q12 153 -109 147q-45 -1 -92 -30.5t-86 -79.5q-67 -87 -135 -226 l-12 -22l-13 -25l-12 -24l-67 -451h-60zM258 1184l8 63q73 76 125 76q29 0 70 -23q3 -2 4 -3t2.5 -1.5t3 -2t6.5 -5t12 -8.5l13 -10l14 -10q15 -12 36.5 -20.5t35.5 -8.5q29 0 57.5 18.5t79.5 69.5l-8 -62q-41 -44 -70.5 -61.5t-62.5 -17.5q-22 0 -64 20q-2 2 -14 10l-43 31 q-51 36 -80 33q-26 -2 -52.5 -20.5t-72.5 -67.5z" />
<glyph unicode="&#xf2;" horiz-adv-x="733" d="M51 287v43q0 138 57.5 287.5t137.5 218.5q42 36 97 57.5t103 21.5q65 0 116 -27.5t79 -78.5q22 -43 30.5 -91t8.5 -132q0 -133 -41.5 -264t-112.5 -224q-92 -121 -247 -121q-60 0 -110 27.5t-75 73.5q-28 55 -37 121q-6 44 -6 88zM111 322q0 -149 32 -207 q19 -36 60.5 -59t87.5 -23q124 0 194 102q64 92 98.5 212.5t34.5 250.5q0 137 -46 200.5t-146 63.5q-54 0 -111 -37.5t-94 -97.5q-50 -79 -80 -190.5t-30 -214.5zM356 1378l66 6l100 -274l-37 -8z" />
<glyph unicode="&#xf3;" horiz-adv-x="733" d="M51 287v43q0 138 57.5 287.5t137.5 218.5q42 36 97 57.5t103 21.5q65 0 116 -27.5t79 -78.5q22 -43 30.5 -91t8.5 -132q0 -133 -41.5 -264t-112.5 -224q-92 -121 -247 -121q-60 0 -110 27.5t-75 73.5q-28 55 -37 121q-6 44 -6 88zM111 322q0 -149 32 -207 q19 -36 60.5 -59t87.5 -23q124 0 194 102q64 92 98.5 212.5t34.5 250.5q0 137 -46 200.5t-146 63.5q-54 0 -111 -37.5t-94 -97.5q-50 -79 -80 -190.5t-30 -214.5zM381 1110l242 276l77 -10l-276 -274z" />
<glyph unicode="&#xf4;" horiz-adv-x="733" d="M51 287v43q0 138 57.5 287.5t137.5 218.5q42 36 97 57.5t103 21.5q65 0 116 -27.5t79 -78.5q22 -43 30.5 -91t8.5 -132q0 -133 -41.5 -264t-112.5 -224q-92 -121 -247 -121q-60 0 -110 27.5t-75 73.5q-28 55 -37 121q-6 44 -6 88zM111 322q0 -149 32 -207 q19 -36 60.5 -59t87.5 -23q124 0 194 102q64 92 98.5 212.5t34.5 250.5q0 137 -46 200.5t-146 63.5q-54 0 -111 -37.5t-94 -97.5q-50 -79 -80 -190.5t-30 -214.5zM231 1112l256 277h27l131 -277l-51 -12l-105 229l-206 -229z" />
<glyph unicode="&#xf5;" horiz-adv-x="733" d="M51 287v43q0 138 57.5 287.5t137.5 218.5q42 36 97 57.5t103 21.5q65 0 116 -27.5t79 -78.5q22 -43 30.5 -91t8.5 -132q0 -133 -41.5 -264t-112.5 -224q-92 -121 -247 -121q-60 0 -110 27.5t-75 73.5q-28 55 -37 121q-6 44 -6 88zM111 322q0 -149 32 -207 q19 -36 60.5 -59t87.5 -23q124 0 194 102q64 92 98.5 212.5t34.5 250.5q0 137 -46 200.5t-146 63.5q-54 0 -111 -37.5t-94 -97.5q-50 -79 -80 -190.5t-30 -214.5zM240 1184l8 63q73 76 125 76q28 0 69 -23q4 -3 9 -6t20 -14l12 -10l15 -10q36 -29 71 -29q29 0 58 18.5 t80 69.5l-9 -62q-41 -44 -70.5 -61.5t-62.5 -17.5q-21 0 -63 20q-2 2 -4 3.5t-5.5 3.5t-5.5 3l-43 31q-51 35 -79 33q-26 -2 -52.5 -20.5t-72.5 -67.5z" />
<glyph unicode="&#xf6;" horiz-adv-x="733" d="M51 287v43q0 138 57.5 287.5t137.5 218.5q42 36 97 57.5t103 21.5q65 0 116 -27.5t79 -78.5q22 -43 30.5 -91t8.5 -132q0 -133 -41.5 -264t-112.5 -224q-92 -121 -247 -121q-60 0 -110 27.5t-75 73.5q-28 55 -37 121q-6 44 -6 88zM111 322q0 -149 32 -207 q19 -36 60.5 -59t87.5 -23q124 0 194 102q64 92 98.5 212.5t34.5 250.5q0 137 -46 200.5t-146 63.5q-54 0 -111 -37.5t-94 -97.5q-50 -79 -80 -190.5t-30 -214.5zM293 1237q1 26 17 44.5t36 18.5q17 0 28 -12t11 -31q0 -28 -16 -47.5t-39 -19.5q-19 0 -29 12.5t-8 34.5z M573 1237q1 26 17.5 44.5t36.5 18.5q17 0 28 -12t11 -31q0 -28 -16.5 -47.5t-39.5 -19.5q-19 0 -29 12.5t-8 34.5z" />
<glyph unicode="&#xf7;" horiz-adv-x="1007" d="M119 631l6 41h827l-6 -41h-827zM451 371q3 18 17 29.5t32 11.5q17 0 27.5 -12t7.5 -29q-3 -19 -17 -31t-33 -12q-17 0 -27 12t-7 31zM535 928q3 19 16.5 31t32.5 12q17 0 27 -12t7 -31q-3 -18 -17 -29.5t-32 -11.5q-17 0 -27 13t-7 28z" />
<glyph unicode="&#xf8;" horiz-adv-x="729" d="M-68 -2l134 149q-8 34 -9 37q-6 27 -6 58q-2 14 -2 45v45q0 137 58 285.5t139 218.5q41 36 95.5 57.5t104.5 21.5q67 0 119 -30t78 -84l105 117l38 -21l-127 -141q19 -66 19 -170q0 -133 -41.5 -264t-112.5 -224q-89 -121 -248 -121q-68 0 -119 32.5t-77 92.5l-111 -125z M109 322q0 -70 8 -117l479 543q-42 123 -172 114q-60 -5 -114 -40t-91 -95q-50 -82 -80 -192.5t-30 -212.5zM127 156q41 -123 164 -123q122 0 192 102q63 91 98 213t35 252q0 51 -8 98z" />
<glyph unicode="&#xf9;" horiz-adv-x="755" d="M70 193q6 49 12 102l88 592h61l-92 -608q-10 -85 -10 -134q0 -51 28.5 -81.5t75.5 -30.5q84 0 165 95t182 312l65 447h60l-76 -514q-6 -35 -14 -95t-11 -81q-4 -62 -4 -82q0 -63 51 -72q15 -2 45 4l-10 -51q-18 -4 -43 -4q-56 3 -79 31t-23 92q0 41 12 147l4 25l2 22 l4 25q-100 -207 -168 -273q-84 -84 -176 -84q-170 0 -149 216zM354 1378l66 6l100 -274l-37 -8z" />
<glyph unicode="&#xfa;" horiz-adv-x="755" d="M70 193q6 49 12 102l88 592h61l-92 -608q-10 -85 -10 -134q0 -51 28.5 -81.5t75.5 -30.5q84 0 165 95t182 312l65 447h60l-76 -514q-6 -35 -14 -95t-11 -81q-4 -62 -4 -82q0 -63 51 -72q15 -2 45 4l-10 -51q-18 -4 -43 -4q-56 3 -79 31t-23 92q0 41 12 147l4 25l2 22 l4 25q-100 -207 -168 -273q-84 -84 -176 -84q-170 0 -149 216zM377 1110l241 276l78 -10l-276 -274z" />
<glyph unicode="&#xfb;" horiz-adv-x="755" d="M70 193q6 49 12 102l88 592h61l-92 -608q-10 -85 -10 -134q0 -51 28.5 -81.5t75.5 -30.5q84 0 165 95t182 312l65 447h60l-76 -514q-6 -35 -14 -95t-11 -81q-4 -62 -4 -82q0 -63 51 -72q15 -2 45 4l-10 -51q-18 -4 -43 -4q-56 3 -79 31t-23 92q0 41 12 147l4 25l2 22 l4 25q-100 -207 -168 -273q-84 -84 -176 -84q-170 0 -149 216zM227 1112l256 277h27l131 -277l-51 -12l-105 229l-206 -229z" />
<glyph unicode="&#xfc;" horiz-adv-x="755" d="M70 193q6 49 12 102l88 592h61l-92 -608q-10 -85 -10 -134q0 -51 28.5 -81.5t75.5 -30.5q84 0 165 95t182 312l65 447h60l-76 -514q-6 -35 -14 -95t-11 -81q-4 -62 -4 -82q0 -63 51 -72q15 -2 45 4l-10 -51q-18 -4 -43 -4q-56 3 -79 31t-23 92q0 41 12 147l4 25l2 22 l4 25q-100 -207 -168 -273q-84 -84 -176 -84q-170 0 -149 216zM291 1237q1 26 17 44.5t36 18.5q17 0 28 -12t11 -31q0 -28 -16 -47.5t-39 -19.5q-19 0 -29 12.5t-8 34.5zM571 1237q1 26 17.5 44.5t36.5 18.5q17 0 28 -12t11 -31q0 -28 -16.5 -47.5t-39.5 -19.5 q-19 0 -29 12.5t-8 34.5z" />
<glyph unicode="&#xfd;" horiz-adv-x="653" d="M-301 -541l2 56q66 -14 115 -9q107 9 193.5 112t232.5 390l-174 869l59 20l115 -604q20 -106 34 -215q37 78 54 115q14 30 24 51.5t13.5 28t5.5 11t4 9.5l287 604l51 -20l-412 -857q-160 -333 -280 -459.5t-261 -111.5q-2 0 -63 10zM338 1110l244 276l77 -10l-278 -274z " />
<glyph unicode="&#xff;" horiz-adv-x="653" d="M-301 -541l2 56q66 -14 115 -9q107 9 193.5 112t232.5 390l-174 869l59 20l115 -604q20 -106 34 -215q37 78 54 115q14 30 24 51.5t13.5 28t5.5 11t4 9.5l287 604l51 -20l-412 -857q-160 -333 -280 -459.5t-261 -111.5q-2 0 -63 10zM252 1237q1 26 17 44.5t36 18.5 q17 0 28 -12t11 -31q0 -28 -16 -47.5t-39 -19.5q-19 0 -29 12.5t-8 34.5zM532 1237q1 26 17.5 44.5t36.5 18.5q17 0 28 -12t11 -31q0 -28 -16.5 -47.5t-39.5 -19.5q-19 0 -29 12.5t-8 34.5z" />
<glyph unicode="&#x152;" horiz-adv-x="1624" d="M84 580q19 305 201 542q181 242 469 242q132 0 278 -70l6 49h590l-8 -55h-524l-82 -547h467l-8 -55h-467l-95 -629h658l-17 -57h-714l8 49q-159 -80 -314 -72q-223 10 -344 173.5t-104 429.5zM152 578q-14 -238 91 -384t300 -159q82 -6 163.5 15t147.5 65l168 1116 q-119 78 -279 78q-246 0 -411 -219q-165 -226 -180 -512z" />
<glyph unicode="&#x153;" horiz-adv-x="1175" d="M47 287v43q0 79 26 183t64 179q54 106 134.5 164.5t172.5 58.5q108 0 165 -66t57 -192q41 114 126.5 185.5t186.5 75.5q84 4 136.5 -47t43.5 -128q-9 -80 -72 -148t-188 -132q-116 -62 -254 -111q0 -6 -1 -17t-1 -16q-7 -126 45 -205t141 -79q143 0 256 180l43 -33 q-69 -106 -143 -155.5t-164 -49.5q-95 0 -160 71t-65 175v25q-88 -271 -322 -271q-60 0 -109.5 27.5t-74.5 73.5q-28 55 -37 121q-6 44 -6 88zM106 322q0 -148 33 -207q19 -36 60.5 -59t87.5 -23q124 0 194 102q64 92 98.5 212.5t34.5 250.5q0 137 -46 200.5t-146 63.5 q-54 0 -111 -37.5t-94 -97.5q-50 -80 -80.5 -191.5t-30.5 -213.5zM649 397q116 45 219 105q120 66 175 128.5t55 131.5q0 46 -32.5 74t-86.5 28q-120 0 -212.5 -131.5t-117.5 -335.5z" />
<glyph unicode="&#x178;" horiz-adv-x="905" d="M129 1333l57 21l283 -668l514 668l55 -21l-544 -704l-95 -629h-65l94 629zM446 1522q1 26 17.5 44.5t36.5 18.5q17 0 28 -12t11 -31q0 -28 -16.5 -47.5t-39.5 -19.5q-19 0 -29 12.5t-8 34.5zM727 1522q1 26 17 44.5t36 18.5q17 0 28 -12t11 -31q0 -28 -16 -47.5 t-39 -19.5q-19 0 -29 12.5t-8 34.5z" />
<glyph unicode="&#x2c6;" horiz-adv-x="0" d="M-137 1112l256 277h26l131 -277l-51 -12l-104 229l-207 -229z" />
<glyph unicode="&#x2dc;" horiz-adv-x="0" d="M-127 1184l8 63q73 76 125 76q29 0 70 -23q3 -2 4 -3t2.5 -1.5t3 -2t6.5 -5t12 -8.5l13 -10l14 -10q15 -12 36.5 -20.5t35.5 -8.5q29 0 57.5 18.5t79.5 69.5l-8 -62q-41 -44 -70.5 -61.5t-62.5 -17.5q-22 0 -64 20q-2 2 -14 10l-43 31q-51 36 -80 33q-26 -2 -52.5 -20.5 t-72.5 -67.5z" />
<glyph unicode="&#x2000;" horiz-adv-x="850" />
<glyph unicode="&#x2001;" horiz-adv-x="1700" />
<glyph unicode="&#x2002;" horiz-adv-x="850" />
<glyph unicode="&#x2003;" horiz-adv-x="1700" />
<glyph unicode="&#x2004;" horiz-adv-x="566" />
<glyph unicode="&#x2005;" horiz-adv-x="425" />
<glyph unicode="&#x2006;" horiz-adv-x="283" />
<glyph unicode="&#x2007;" horiz-adv-x="283" />
<glyph unicode="&#x2008;" horiz-adv-x="212" />
<glyph unicode="&#x2009;" horiz-adv-x="340" />
<glyph unicode="&#x200a;" horiz-adv-x="94" />
<glyph unicode="&#x2010;" horiz-adv-x="489" d="M59 453l9 55h370l-8 -55h-371z" />
<glyph unicode="&#x2011;" horiz-adv-x="489" d="M59 453l9 55h370l-8 -55h-371z" />
<glyph unicode="&#x2012;" horiz-adv-x="489" d="M59 453l9 55h370l-8 -55h-371z" />
<glyph unicode="&#x2013;" horiz-adv-x="854" d="M55 455l8 51h742l-8 -51h-742z" />
<glyph unicode="&#x2014;" horiz-adv-x="854" d="M55 455l8 51h742l-8 -51h-742z" />
<glyph unicode="&#x2018;" horiz-adv-x="327" d="M125 903q26 135 84.5 249.5t161.5 229.5l47 -20q-97 -116 -152.5 -225t-83.5 -240z" />
<glyph unicode="&#x2019;" horiz-adv-x="327" d="M115 918q97 116 152.5 224t84.5 240l56 -6q-24 -134 -83 -247.5t-163 -231.5z" />
<glyph unicode="&#x201c;" horiz-adv-x="540" d="M125 903q26 135 84.5 249.5t161.5 229.5l47 -20q-97 -116 -152.5 -225t-83.5 -240zM340 903q26 135 84.5 249.5t161.5 229.5l47 -20q-97 -116 -152.5 -225t-83.5 -240z" />
<glyph unicode="&#x201d;" horiz-adv-x="540" d="M115 918q97 116 152.5 224t84.5 240l56 -6q-24 -134 -83 -247.5t-163 -231.5zM330 918q97 116 152.5 224t84.5 240l56 -6q-24 -134 -83 -247.5t-163 -231.5z" />
<glyph unicode="&#x201e;" horiz-adv-x="430" d="M-170 -236q97 118 153 226.5t85 238.5l55 -4q-25 -134 -84 -248.5t-162 -230.5zM45 -236q97 118 153 226.5t85 238.5l55 -4q-25 -134 -84 -248.5t-162 -230.5z" />
<glyph unicode="&#x202f;" horiz-adv-x="340" />
<glyph unicode="&#x2039;" horiz-adv-x="405" d="M45 442l332 379l22 -49l-288 -330l190 -327l-37 -45z" />
<glyph unicode="&#x203a;" horiz-adv-x="405" d="M4 119l289 330l-191 327l37 45l219 -372l-329 -379z" />
<glyph unicode="&#x205f;" horiz-adv-x="425" />
<glyph unicode="&#x20ac;" horiz-adv-x="901" d="M-10 537l30 53h144q6 78 24 151h-172l31 54h156q30 101 83.5 192.5t126.5 165.5t170.5 118t204.5 44q141 0 281 -105l-33 -51q-70 50 -126.5 72t-131.5 22q-97 0 -182 -37.5t-148 -102.5t-108 -145.5t-72 -172.5h547l-31 -54h-530q-19 -79 -25 -151h469l-30 -53h-441v-23 q-2 -91 20 -174.5t66 -152t119 -109.5t172 -41q152 0 291 104l16 -53q-65 -53 -151 -83t-172 -30q-91 0 -165.5 32t-123.5 86.5t-82 127.5t-46.5 152.5t-10.5 163.5h-170z" />
<glyph unicode="&#x25fc;" horiz-adv-x="901" d="M0 0v901h901v-901h-901z" />
</font>
</defs>
</svg>
